PathFileType	4	(X/Y/Z)	C:\Users\WrightLab\Desktop\Jo\P5V31.trc
DataRate	CameraRate	NumFrames	NumMarkers	Units	OrigDataRate	OrigDataStartFrame	OrigNumFrames
100.00	100.00	       12	19	mm	100.00	681	       907
Frame#	Time	Headset_Front			Headset_Back			Headset_Left			Headset_Right			Left_Shoulder			Right_Shoulder			Sternum			C7			Left Elbow			Right Elbow			Left Wrist			Right Wrist			Left ASIS			Right ASIS			S2			Left Knee			Right Knee			Left Ankle			Right Ankle			
		X1	Y1	Z1	X2	Y2	Z2	X3	Y3	Z3	X4	Y4	Z4	X5	Y5	Z5	X6	Y6	Z6	X7	Y7	Z7	X8	Y8	Z8	X9	Y9	Z9	X10	Y10	Z10	X11	Y11	Z11	X12	Y12	Z12	X13	Y13	Z13	X14	Y14	Z14	X15	Y15	Z15	X16	Y16	Z16	X17	Y17	Z17	X18	Y18	Z18	X19	Y19	Z19	

681	6.800	-293.86459	1517.79370	120.01682							-350.65796	1573.48425	427.24884	-56.86211	1508.82825	197.03889	-449.11728	1452.14246	291.25992	-242.11758	1316.26135	320.49014	-231.26553	1503.25684	487.79752	-102.49776	1273.10730	326.46729	-560.12268	1226.39661	381.00623	21.86759	1218.14111	168.84160	-492.65628	1213.48096	608.93805	-89.00544	941.20074	325.16064	-365.06195	940.35791	361.03226	-231.18652	964.91791	77.80561	-62.30857	552.39587	445.64331	-398.79523	488.59192	299.77789	-81.31535	158.12352	350.11694	-330.41443	107.57800	86.70726	
682	6.810	-293.34824	1517.50049	126.95172							-348.81995	1573.05469	433.69675	-55.62514	1508.47253	203.47205	-448.17838	1452.21887	297.89185	-241.40865	1315.97290	326.63550	-229.84891	1503.30945	494.02753	-101.08572	1272.80029	332.45752	-559.40759	1227.89343	388.20932	22.81773	1217.09680	175.71642	-490.16571	1213.50769	616.31781	-87.32022	940.49280	331.55255	-362.84259	939.74847	366.34332	-230.81474	963.94128	83.91474	-62.24159	551.72931	451.44882	-399.87296	488.24408	305.89194	-78.60117	152.01534	374.17538	-330.38516	108.37370	87.14395	
683	6.820	-292.36707	1517.33923	133.38742							-347.76981	1572.83350	440.26291	-54.70258	1508.05945	210.04103	-446.72235	1451.67737	304.57272	-239.97322	1315.70959	333.08148	-227.97241	1503.08923	500.21780	-99.54897	1272.13782	338.73199	-556.59351	1225.64807	395.40219	21.62977	1215.84863	177.43893	-487.20105	1213.84155	623.31244	-86.17650	940.83954	338.12433	-361.99844	939.55322	372.54178	-230.82866	964.23541	88.67642	-61.47292	550.18396	456.01697	-400.77505	487.45990	311.53391	-75.19889	147.10118	393.89902	-330.48395	109.01855	87.92464	
684	6.830	-291.22476	1517.27673	139.80081							-345.97098	1572.43127	447.09372	-53.75700	1507.53662	215.67506	-445.56128	1451.90173	311.45438	-238.85263	1315.22961	339.64502	-226.28127	1502.30676	506.86356	-98.02142	1272.04395	345.60321	-554.68842	1226.03845	402.76541	24.47166	1216.42993	186.92894	-483.08667	1213.40088	630.89911	-84.60293	939.83240	344.48087	-361.43127	939.37457	379.38193	-229.89192	963.92511	94.03284	-60.61549	548.90796	460.20087	-401.71991	487.40225	317.72168	-71.85543	142.26241	416.37772	-330.34503	109.52695	88.13350	
685	6.840	-290.38055	1516.88159	146.65480							-344.67062	1571.85620	453.65176	-52.80457	1507.29980	221.92999	-444.10590	1451.81409	318.16873	-237.87027	1315.35071	346.66446	-225.11964	1502.53052	513.47827	-96.72440	1271.64539	351.92807	-552.41339	1225.28296	409.82468	22.02720	1216.55762	194.99590	-481.47836	1214.02600	637.71527	-83.08362	939.52808	351.29605	-360.07153	939.53351	384.96713	-229.70932	963.97327	99.00956	-60.41803	546.51343	464.62006	-401.99933	486.45038	323.34125	-69.30230	138.11115	438.35501	-330.43658	110.25491	88.57462	
686	6.850	-289.50412	1516.81946	153.66551							-343.21216	1571.77600	460.74521	-51.64456	1507.34851	228.81697	-443.01749	1451.47766	325.31842	-236.67172	1314.80908	353.46945	-222.89908	1501.75793	519.96747	-95.48910	1271.50085	358.14917	-550.61377	1225.22461	417.28345	25.06794	1215.95117	199.74966	-478.17300	1213.98352	644.40448	-81.70782	939.28424	357.35138	-358.26917	938.70416	391.32449	-229.54533	963.20117	104.61566	-59.38521	544.86237	468.29010	-401.22086	486.28699	328.46448	-67.08768	135.09184	459.80676	-330.66312	110.76132	89.31031	
687	6.860	-288.44302	1516.31372	160.51198							-341.88855	1571.29578	467.68665	-50.44387	1506.62646	236.45871	-442.19315	1451.39319	332.75919	-235.26926	1314.77527	360.33182	-222.09975	1501.86316	526.97388	-93.39642	1270.98364	366.38763	-548.06720	1224.52625	424.88248	24.29987	1214.64343	204.22900	-474.78928	1213.07678	652.12531	-79.92694	938.75421	364.32730	-357.59421	938.78082	397.77954	-229.06960	962.44836	110.63367	-59.12897	542.62939	472.53458	-403.12479	485.62396	335.14828	-65.40359	132.35220	481.15540	-330.81473	111.68353	89.87844	
688	6.870	-287.29449	1515.89783	167.32161							-340.62927	1570.63184	474.95001	-49.54073	1506.11707	243.27647	-440.71405	1451.15198	340.09473	-234.52240	1314.62170	367.54782	-219.89024	1501.05542	533.66962	-91.98721	1271.31836	372.41797	-546.15942	1224.30908	432.64059	27.23806	1215.01819	213.42744	-472.88400	1213.64465	659.22540	-78.43351	938.32733	371.40408	-355.69125	938.42920	404.02472	-229.12515	963.04999	115.89057	-58.32612	540.52911	476.28351	-402.17911	485.59299	340.40326	-63.95936	130.21228	502.35657	-331.38864	112.73842	90.64849	
689	6.880	-286.17337	1515.68262	174.61282							-338.98148	1570.00647	482.15735	-48.89790	1505.87695	249.17400	-439.05716	1451.44263	347.10315	-233.10890	1314.33130	375.24216	-217.58232	1500.43738	540.50781	-90.19422	1270.65955	380.08829	-543.93958	1223.75806	439.81158	28.33975	1215.64111	219.71814	-470.39447	1213.49500	666.91827	-77.01138	937.87769	378.46832	-355.05692	938.47766	410.70996	-228.55824	962.30219	122.59785	-57.56341	537.17249	479.40894	-403.77460	485.35373	347.43015	-62.99633	128.29474	522.24078	-331.47647	113.55000	91.36080	
690	6.890	-285.31274	1515.33984	182.24652							-337.25671	1569.25073	489.84735	-47.34662	1505.74121	256.65866	-437.75986	1450.95447	354.74054	-232.28513	1313.95178	382.77130	-215.48352	1500.10742	547.37909	-88.70775	1270.85010	387.59766	-541.21014	1223.01794	447.79340	30.09328	1214.73474	227.79747	-468.07880	1213.10205	673.74792	-75.70638	937.23376	385.25558	-353.88754	937.32117	417.81570	-228.20805	961.72882	128.77855	-57.09645	534.60382	483.36621	-403.84778	484.07428	353.03452	-63.26025	127.30247	541.49414	-331.90115	114.61094	92.42893	
691	6.900	-284.21844	1514.97900	189.62891							-335.30154	1568.20361	497.40579	-46.69256	1505.33215	264.03537	-436.23886	1450.43018	362.29413	-230.78667	1313.58521	390.04922	-212.54204	1499.39185	554.13940	-87.28994	1270.26868	395.01413	-538.77393	1222.28613	454.90674	31.39184	1214.81665	234.98907	-465.03604	1213.32739	681.56268	-73.65447	937.22162	392.45364	-351.97946	937.83276	424.06921	-227.76138	961.22113	135.05518	-56.64983	532.65442	486.66534	-403.34793	484.27814	358.61295	-63.63893	125.85111	558.54205	-331.96671	115.51757	93.09971	
692	6.910	-283.13022	1514.68970	197.20566							-333.30878	1567.46021	505.73380	-45.58765	1505.00903	271.59518	-435.23785	1450.18201	370.02856	-230.45781	1313.92444	398.21130	-209.84424	1498.88220	561.38599	-84.48040	1270.85071	402.50131	-536.81641	1221.48975	462.61908	32.37593	1214.04041	242.00905	-462.38376	1213.05713	689.58862	-72.64021	936.63770	400.20514	-350.65262	937.28845	431.29700	-227.93483	961.02740	141.74506	-55.67779	530.25842	490.79388	-404.46344	483.78641	364.54626	-64.59383	124.78297	575.27289	-331.97327	116.55657	94.21455	
